<svg xmlns="http://www.w3.org/2000/svg" xmlns:xlink="http://www.w3.org/1999/xlink" width="120" height="120" viewBox="0 0 120 120" fill="none"><path d="M59.1971 74C59.6697 74 60.1421 73.9884 60.6142 73.9651C61.0862 73.9418 61.5574 73.9069 62.0278 73.8604C62.4982 73.8138 62.9671 73.7558 63.4346 73.6861C63.9022 73.6165 64.3677 73.5354 64.8312 73.4428C65.2948 73.3502 65.7558 73.2462 66.2143 73.1309C66.6728 73.0156 67.1281 72.889 67.5804 72.7513C68.0327 72.6135 68.4814 72.4647 68.9264 72.3048C69.3714 72.1449 69.8122 71.9741 70.2489 71.7925C70.6855 71.6109 71.1175 71.4186 71.5447 71.2157C71.972 71.0128 72.394 70.7994 72.8109 70.5757C73.2277 70.352 73.6389 70.1181 74.0442 69.8741C74.4496 69.6301 74.8488 69.3763 75.2418 69.1126C75.6348 68.8489 76.0211 68.5757 76.4007 68.293C76.7803 68.0103 77.1528 67.7184 77.5181 67.4173C77.8835 67.1162 78.2413 66.8063 78.5915 66.4876C78.9417 66.1689 79.2839 65.8417 79.6181 65.5061C79.9523 65.1705 80.2781 64.8269 80.5955 64.4752C80.9129 64.1235 81.2216 63.7642 81.5214 63.3974C81.8212 63.0305 82.1119 62.6565 82.3934 62.2753C82.675 61.8941 82.9471 61.5062 83.2097 61.1115C83.4722 60.7169 83.725 60.3161 83.968 59.909C84.211 59.5019 84.4439 59.0891 84.6667 58.6705C84.8895 58.2519 85.1019 57.8281 85.304 57.3991C85.5061 56.97 85.6976 56.5363 85.8784 56.0978C86.0593 55.6594 86.2294 55.2167 86.3886 54.7698C86.5478 54.3229 86.696 53.8724 86.8332 53.4183C86.9704 52.9641 87.0964 52.5068 87.2113 52.0464C87.3261 51.5861 87.4296 51.1231 87.5219 50.6576C87.6141 50.1921 87.6948 49.7247 87.7642 49.2552C87.8335 48.7857 87.8914 48.3148 87.9377 47.8425C87.984 47.3702 88.0188 46.897 88.042 46.423C88.0652 45.949 88.0768 45.4746 88.0768 45C88.0768 44.5254 88.0652 44.051 88.042 43.577C88.0188 43.103 87.984 42.6298 87.9377 42.1575C87.8914 41.6852 87.8335 41.2143 87.7642 40.7448C87.6948 40.2753 87.6141 39.8079 87.5219 39.3424C87.4296 38.8769 87.3261 38.4139 87.2113 37.9536C87.0964 37.4932 86.9704 37.0359 86.8332 36.5817C86.696 36.1276 86.5478 35.6771 86.3886 35.2302C86.2294 34.7833 86.0593 34.3406 85.8784 33.9022C85.6976 33.4637 85.5061 33.03 85.304 32.6009C85.1019 32.1719 84.8895 31.7481 84.6667 31.3295C84.4439 30.9109 84.211 30.4981 83.968 30.0911C83.725 29.684 83.4722 29.2831 83.2097 28.8885C82.9471 28.4938 82.675 28.106 82.3934 27.7247C82.1119 27.3435 81.8212 26.9695 81.5214 26.6026C81.2216 26.2358 80.9129 25.8765 80.5955 25.5248C80.2781 25.1731 79.9523 24.8295 79.6181 24.4939C79.2839 24.1583 78.9417 23.8311 78.5915 23.5124C78.2413 23.1937 77.8835 22.8838 77.5181 22.5827C77.1528 22.2816 76.7803 21.9897 76.4007 21.707C76.0211 21.4243 75.6348 21.1511 75.2418 20.8874C74.8488 20.6237 74.4496 20.3699 74.0442 20.1259C73.6389 19.8819 73.2277 19.648 72.8109 19.4243C72.394 19.2005 71.972 18.9872 71.5447 18.7843C71.1175 18.5814 70.6855 18.3892 70.2489 18.2075C69.8122 18.0259 69.3714 17.8552 68.9264 17.6953C68.4814 17.5354 68.0327 17.3866 67.5804 17.2489C67.1281 17.1113 66.6728 16.9844 66.2143 16.8689C65.7558 16.7539 65.2948 16.6497 64.8312 16.5573C64.3677 16.465 63.9022 16.3835 63.4346 16.3138C62.9671 16.2441 62.4982 16.1863 62.0278 16.1399C61.5574 16.0929 61.0862 16.0583 60.6142 16.0351C60.1421 16.0119 59.6697 16 59.1971 16C58.7245 16 58.2521 16.0119 57.78 16.0351C57.308 16.0583 56.8368 16.0929 56.3664 16.1399C55.896 16.1863 55.4271 16.2441 54.9596 16.3138C54.492 16.3835 54.0265 16.465 53.563 16.5573C53.0994 16.6497 52.6384 16.7539 52.1799 16.8689C51.7214 16.9844 51.2661 17.1113 50.8138 17.2489C50.3615 17.3866 49.9129 17.5354 49.4679 17.6953C49.0228 17.8552 48.582 18.0259 48.1453 18.2075C47.7087 18.3892 47.2767 18.5814 46.8495 18.7843C46.4222 18.9872 46.0002 19.2005 45.5833 19.4243C45.1665 19.648 44.7554 19.8819 44.35 20.1259C43.9446 20.3699 43.5454 20.6237 43.1524 20.8874C42.7594 21.1511 42.3732 21.4243 41.9935 21.707C41.6139 21.9897 41.2414 22.2816 40.8761 22.5827C40.5107 22.8838 40.1529 23.1937 39.8027 23.5124C39.4525 23.8311 39.1103 24.1583 38.7761 24.4939C38.4419 24.8295 38.1161 25.1731 37.7987 25.5248C37.4813 25.8765 37.1726 26.2358 36.8728 26.6026C36.573 26.9695 36.2823 27.3435 36.0007 27.7247C35.7192 28.106 35.4471 28.4938 35.1846 28.8885C34.922 29.2831 34.6692 29.684 34.4262 30.0911C34.1832 30.4981 33.9503 30.9109 33.7275 31.3295C33.5047 31.7481 33.2923 32.1719 33.0902 32.6009C32.8881 33.03 32.6967 33.4637 32.5158 33.9022C32.3349 34.3406 32.1649 34.7833 32.0057 35.2302C31.8464 35.6771 31.6982 36.1276 31.5612 36.5817C31.4241 37.0359 31.2978 37.4932 31.1827 37.9536C31.0682 38.4139 30.9644 38.8769 30.8725 39.3424C30.7805 39.8079 30.6993 40.2753 30.6299 40.7448C30.5605 41.2143 30.503 41.6852 30.4568 42.1575C30.4099 42.6298 30.3755 43.103 30.3524 43.577C30.3293 44.051 30.3174 44.5254 30.3174 45C30.3174 45.4746 30.3293 45.949 30.3524 46.423C30.3755 46.897 30.4099 47.3702 30.4568 47.8425C30.503 48.3148 30.5605 48.7857 30.6299 49.2552C30.6993 49.7247 30.7805 50.1921 30.8725 50.6576C30.9644 51.1231 31.0682 51.5861 31.1827 52.0464C31.2978 52.5068 31.4241 52.9641 31.5612 53.4183C31.6982 53.8724 31.8464 54.3229 32.0057 54.7698C32.1649 55.2167 32.3349 55.6594 32.5158 56.0978C32.6967 56.5363 32.8881 56.97 33.0902 57.3991C33.2923 57.8281 33.5047 58.2519 33.7275 58.6705C33.9503 59.0891 34.1832 59.5019 34.4262 59.909C34.6692 60.3161 34.922 60.7169 35.1846 61.1115C35.4471 61.5062 35.7192 61.8941 36.0007 62.2753C36.2823 62.6565 36.573 63.0305 36.8728 63.3974C37.1726 63.7642 37.4813 64.1235 37.7987 64.4752C38.1161 64.8269 38.4419 65.1705 38.7761 65.5061C39.1103 65.8417 39.4525 66.1689 39.8027 66.4876C40.1529 66.8063 40.5107 67.1162 40.8761 67.4173C41.2414 67.7184 41.6139 68.0103 41.9935 68.293C42.3732 68.5757 42.7594 68.8489 43.1524 69.1126C43.5454 69.3763 43.9446 69.6301 44.35 69.8741C44.7554 70.1181 45.1665 70.352 45.5833 70.5757C46.0002 70.7994 46.4222 71.0128 46.8495 71.2157C47.2767 71.4186 47.7087 71.6109 48.1453 71.7925C48.582 71.9741 49.0228 72.1449 49.4678 72.3048C49.9129 72.4647 50.3615 72.6135 50.8138 72.7513C51.2661 72.889 51.7214 73.0156 52.1799 73.1309C52.6384 73.2462 53.0994 73.3502 53.563 73.4428C54.0265 73.5354 54.492 73.6165 54.9596 73.6861C55.4271 73.7558 55.896 73.8138 56.3664 73.8604C56.8368 73.9069 57.308 73.9418 57.78 73.9651C58.2521 73.9884 58.7245 74 59.1971 74ZM82.3008 45C82.3008 45.1593 82.2991 45.3187 82.2958 45.478C82.2924 45.6373 82.2875 45.7966 82.2808 45.9558C82.2742 46.115 82.2659 46.2742 82.256 46.4332C82.2461 46.5922 82.2345 46.7512 82.2213 46.91C82.2081 47.0687 82.1933 47.2274 82.1768 47.3859C82.1603 47.5444 82.1422 47.7027 82.1224 47.8608C82.1027 48.0189 82.0813 48.1769 82.0582 48.3345C82.0352 48.4922 82.0106 48.6496 81.9843 48.8068C81.9581 48.9639 81.9301 49.1207 81.9006 49.2773C81.8711 49.4339 81.8399 49.5902 81.8072 49.7461C81.7745 49.902 81.7401 50.0576 81.7041 50.2127C81.6682 50.368 81.6306 50.5228 81.5914 50.6772C81.5522 50.8317 81.5115 50.9857 81.4691 51.1392C81.4268 51.2928 81.3828 51.4459 81.3373 51.5986C81.2918 51.7512 81.2448 51.9034 81.1961 52.0551C81.1474 52.2067 81.0972 52.3579 81.0454 52.5085C80.9936 52.6592 80.9402 52.8093 80.8853 52.9587C80.8305 53.1083 80.774 53.2572 80.7161 53.4055C80.6581 53.5539 80.5986 53.7016 80.5376 53.8487C80.4766 53.9958 80.414 54.1423 80.3499 54.288C80.2859 54.4338 80.2204 54.5789 80.1533 54.7234C80.0862 54.8678 80.0177 55.0115 79.9476 55.1545C79.8776 55.2975 79.8061 55.4398 79.7332 55.5813C79.6602 55.7229 79.5858 55.8636 79.5099 56.0035C79.4341 56.1435 79.3567 56.2826 79.278 56.421C79.1992 56.5593 79.119 56.6969 79.0374 56.8335C78.9558 56.9702 78.8728 57.106 78.7885 57.2409C78.704 57.3759 78.6182 57.5099 78.5311 57.6431C78.4439 57.7763 78.3554 57.9085 78.2655 58.0398C78.1756 58.1711 78.0843 58.3015 77.9917 58.4309C77.8991 58.5603 77.8051 58.6887 77.7099 58.8162C77.6146 58.9436 77.518 59.07 77.4202 59.1955L45.0605 26.701C45.2725 26.5363 45.4873 26.3754 45.7048 26.2183C45.9224 26.0611 46.1426 25.9077 46.3654 25.7583C46.5883 25.6088 46.8137 25.4633 47.0416 25.3217C47.2696 25.1801 47.4999 25.0425 47.7326 24.9089C47.9652 24.7754 48.2002 24.646 48.4373 24.5206C48.6745 24.3953 48.9138 24.2741 49.1552 24.1572C49.3965 24.0402 49.6399 23.9275 49.8851 23.819C50.1304 23.7105 50.3775 23.6064 50.6263 23.5065C50.8752 23.4067 51.1258 23.3112 51.378 23.2201C51.6302 23.1291 51.8838 23.0424 52.1391 22.9602C52.3942 22.878 52.6508 22.8002 52.9087 22.727C53.1666 22.6537 53.4257 22.585 53.6859 22.5208C53.9462 22.4566 54.2075 22.397 54.4699 22.3419C54.7322 22.2869 54.9954 22.2364 55.2595 22.1905C55.5236 22.1447 55.7884 22.1034 56.0539 22.0668C56.3194 22.0302 56.5855 21.9982 56.8521 21.9709C57.1187 21.9436 57.3857 21.9209 57.6532 21.903C57.9206 21.885 58.1882 21.8717 58.4561 21.863C58.724 21.8544 58.9919 21.8505 59.2599 21.8512C59.5279 21.8519 59.7958 21.8573 60.0637 21.8674C60.3315 21.8775 60.5991 21.8923 60.8664 21.9117C61.1337 21.9311 61.4005 21.9553 61.667 21.984C61.9335 22.0128 62.1994 22.0462 62.4647 22.0843C62.73 22.1223 62.9946 22.1651 63.2584 22.2123C63.5223 22.2596 63.7852 22.3116 64.0472 22.368C64.3092 22.4245 64.5702 22.4856 64.8302 22.5512C65.0901 22.6169 65.3488 22.687 65.6063 22.7616C65.8638 22.8363 66.1199 22.9154 66.3747 22.999C66.6294 23.0826 66.8826 23.1706 67.1343 23.2631C67.386 23.3556 67.6361 23.4524 67.8844 23.5536C68.1328 23.6548 68.3793 23.7603 68.6239 23.8701C68.8686 23.9799 69.1113 24.0939 69.3521 24.2123C69.5928 24.3306 69.8314 24.453 70.0679 24.5796C70.3044 24.7063 70.5386 24.837 70.7706 24.9718C71.0025 25.1066 71.2321 25.2454 71.4592 25.3883C71.6864 25.5311 71.911 25.6778 72.133 25.8286C72.3551 25.9793 72.5745 26.1338 72.7912 26.2921C73.0079 26.4505 73.2218 26.6126 73.4329 26.7784C73.644 26.9442 73.8521 27.1137 74.0573 27.2868C74.2625 27.4599 74.4647 27.6365 74.6638 27.8167C74.8629 27.9968 75.0588 28.1805 75.2515 28.3674C75.4443 28.5545 75.6337 28.7448 75.8198 28.9384C76.006 29.1321 76.1887 29.3289 76.368 29.5289C76.5473 29.7289 76.7231 29.9319 76.8954 30.1381C77.0677 30.3443 77.2363 30.5534 77.4013 30.7655C77.5664 30.9775 77.7277 31.1924 77.8853 31.4101C78.0428 31.6278 78.1966 31.8482 78.3466 32.0712C78.4965 32.2943 78.6425 32.5199 78.7847 32.7481C78.9268 32.9762 79.065 33.2068 79.1991 33.4398C79.3332 33.6728 79.4633 33.9081 79.5892 34.1456C79.7152 34.3831 79.837 34.6228 79.9548 34.8646C80.0724 35.1064 80.1859 35.3502 80.2951 35.596C80.4043 35.8417 80.5092 36.0893 80.6099 36.3387C80.7105 36.5881 80.8068 36.8393 80.8988 37.0921C80.9908 37.3448 81.0783 37.5992 81.1614 37.855C81.2445 38.1109 81.3232 38.3681 81.3974 38.6267C81.4716 38.8853 81.5413 39.1451 81.6065 39.4062C81.6717 39.6672 81.7324 39.9293 81.7886 40.1925C81.8447 40.4556 81.8962 40.7197 81.9432 40.9846C81.9902 41.2496 82.0326 41.5153 82.0704 41.7817C82.1081 42.0482 82.1413 42.3152 82.1697 42.5828C82.1982 42.8504 82.2221 43.1184 82.2414 43.3868C82.2606 43.6552 82.2752 43.9239 82.2851 44.1929C82.295 44.4619 82.3002 44.7309 82.3008 45ZM40.974 30.8045L73.3337 63.299C73.0586 63.5076 72.7789 63.7098 72.4948 63.9058C72.2107 64.1018 71.9224 64.2913 71.6298 64.4743C71.3372 64.6574 71.0408 64.8337 70.7403 65.0034C70.4399 65.1732 70.1358 65.336 69.8281 65.4921C69.5205 65.6481 69.2094 65.7971 68.8951 65.9392C68.5807 66.0812 68.2634 66.2162 67.9431 66.344C67.6227 66.4718 67.2997 66.5923 66.974 66.7056C66.6482 66.8189 66.3202 66.9248 65.9897 67.0233C65.6593 67.1218 65.3268 67.2129 64.9923 67.2965C64.6578 67.3801 64.3216 67.4561 63.9837 67.5246C63.6458 67.593 63.3066 67.6539 62.966 67.7071C62.6254 67.7604 62.2838 67.8059 61.9411 67.8438C61.5985 67.8817 61.2552 67.9118 60.9112 67.9342C60.5672 67.9567 60.2229 67.9714 59.8783 67.9784C59.5337 67.9853 59.189 67.9846 58.8445 67.976C58.4999 67.9675 58.1556 67.9513 57.8117 67.9273C57.4678 67.9033 57.1246 67.8716 56.7822 67.8322C56.4398 67.7928 56.0983 67.7457 55.758 67.6909C55.4176 67.6361 55.0786 67.5738 54.7411 67.5038C54.4035 67.4338 54.0676 67.3562 53.7335 67.2711C53.3994 67.1861 53.0673 67.0935 52.7374 66.9935C52.4073 66.8935 52.0797 66.7861 51.7545 66.6714C51.4293 66.5566 51.1068 66.4346 50.787 66.3054C50.4673 66.1762 50.1505 66.0398 49.8368 65.8963C49.5231 65.7528 49.2128 65.6024 48.9058 65.445C48.5988 65.2876 48.2955 65.1233 47.9958 64.9523C47.6961 64.7812 47.4004 64.6035 47.1086 64.4192C46.8169 64.2348 46.5294 64.0441 46.2462 63.8468C45.9629 63.6495 45.6842 63.446 45.41 63.2362C45.1359 63.0264 44.8665 62.8105 44.6019 62.5886C44.3374 62.3668 44.0779 62.139 43.8235 61.9055C43.5691 61.6719 43.3201 61.4327 43.0763 61.1879C42.8326 60.9432 42.5944 60.6931 42.3618 60.4376C42.1292 60.1822 41.9024 59.9216 41.6814 59.656C41.4605 59.3903 41.2455 59.1198 41.0366 58.8445C40.8277 58.5692 40.625 58.2893 40.4285 58.0049C40.2321 57.7205 40.0421 57.4318 39.8585 57.1388C39.6749 56.8458 39.498 56.5489 39.3276 56.248C39.1573 55.947 38.9937 55.6425 38.8369 55.3342C38.6802 55.0259 38.5304 54.7143 38.3875 54.3993C38.2446 54.0843 38.1088 53.7662 37.9801 53.4451C37.8514 53.124 37.7299 52.8001 37.6156 52.4736C37.5014 52.147 37.3945 51.8181 37.2949 51.4867C37.1953 51.1553 37.1031 50.8219 37.0184 50.4863C36.9336 50.1508 36.8564 49.8136 36.7867 49.4746C36.717 49.1356 36.6549 48.7952 36.6003 48.4534C36.5458 48.1117 36.4989 47.7688 36.4597 47.425C36.4204 47.0811 36.3888 46.7365 36.365 46.3912C36.341 46.0458 36.3249 45.7001 36.3164 45.3541C36.3079 45.0081 36.3071 44.662 36.3141 44.316C36.321 43.9699 36.3356 43.6242 36.358 43.2787C36.3804 42.9334 36.4104 42.5886 36.4481 42.2445C36.4858 41.9005 36.5312 41.5574 36.5842 41.2154C36.6372 40.8734 36.6978 40.5328 36.766 40.1935C36.8342 39.8541 36.9099 39.5166 36.9931 39.1807C37.0763 38.8447 37.167 38.5109 37.2652 38.1791C37.3633 37.8473 37.4688 37.5178 37.5816 37.1907C37.6944 36.8636 37.8144 36.5392 37.9417 36.2176C38.069 35.8959 38.2033 35.5773 38.3448 35.2616C38.4863 34.9459 38.6347 34.6336 38.7901 34.3247C38.9455 34.0157 39.1076 33.7104 39.2767 33.4087C39.4457 33.107 39.6213 32.8093 39.8036 32.5155C39.9858 32.2217 40.1745 31.9322 40.3697 31.6469C40.5649 31.3616 40.7663 31.0807 40.974 30.8045Z" stroke="rgba(42, 130, 228, 1)" stroke-width="3.6250000000000013"      fill="#2A82E4" ></path><rect x="14" y="88" width="34" height="18"   fill="#2A82E4" ></rect><g ><text transform="translate(20, 85)"><tspan x="0" y="18" font-size="18" line-height="0"  fill="#F7F7F7"  font-family="Torus-SemiBold" letter-spacing="0" >1st</tspan></text></g><rect x="48" y="88" width="58" height="18"   fill="#FFC300" ></rect><g ><text transform="translate(60, 85)"><tspan x="0" y="18" font-size="18" line-height="0"  fill="#383838"  font-family="Torus-SemiBold" letter-spacing="0" >BAN</tspan></text></g></svg>