<svg xmlns="http://www.w3.org/2000/svg" xmlns:xlink="http://www.w3.org/1999/xlink" width="120" height="120" viewBox="0 0 120 120" fill="none"><path d="M61 16C60.5254 16 60.051 16.0116 59.577 16.0349C59.103 16.0582 58.6298 16.0931 58.1575 16.1396C57.6852 16.1862 57.2143 16.2442 56.7448 16.3139C56.2753 16.3835 55.8079 16.4646 55.3424 16.5572C54.8769 16.6498 54.4139 16.7538 53.9536 16.8691C53.4932 16.9844 53.0359 17.111 52.5817 17.2487C52.1276 17.3865 51.6771 17.5353 51.2302 17.6952C50.7833 17.8551 50.3406 18.0259 49.9022 18.2075C49.4637 18.3891 49.03 18.5814 48.6009 18.7843C48.1719 18.9872 47.7481 19.2006 47.3295 19.4243C46.9109 19.648 46.4981 19.8819 46.091 20.1259C45.6839 20.3699 45.2831 20.6237 44.8885 20.8874C44.4938 21.1511 44.1059 21.4243 43.7247 21.707C43.3435 21.9897 42.9695 22.2816 42.6026 22.5827C42.2358 22.8838 41.8765 23.1937 41.5248 23.5124C41.1731 23.8311 40.8295 24.1583 40.4939 24.4939C40.1583 24.8295 39.8311 25.1731 39.5124 25.5248C39.1937 25.8765 38.8838 26.2358 38.5827 26.6026C38.2816 26.9695 37.9897 27.3435 37.707 27.7247C37.4243 28.1059 37.1511 28.4938 36.8874 28.8885C36.6237 29.2831 36.3699 29.6839 36.1259 30.091C35.8819 30.4981 35.648 30.9109 35.4243 31.3295C35.2006 31.7481 34.9872 32.1719 34.7843 32.6009C34.5814 33.03 34.3891 33.4637 34.2075 33.9022C34.0259 34.3406 33.8551 34.7833 33.6952 35.2302C33.5353 35.6771 33.3865 36.1276 33.2487 36.5817C33.111 37.0359 32.9844 37.4932 32.8691 37.9536C32.7538 38.4139 32.6498 38.8769 32.5572 39.3424C32.4646 39.8079 32.3835 40.2753 32.3139 40.7448C32.2442 41.2143 32.1862 41.6852 32.1396 42.1575C32.0931 42.6298 32.0582 43.103 32.0349 43.577C32.0116 44.051 32 44.5254 32 45C32 45.4746 32.0116 45.949 32.0349 46.423C32.0582 46.897 32.0931 47.3702 32.1396 47.8425C32.1862 48.3148 32.2442 48.7857 32.3139 49.2552C32.3835 49.7247 32.4646 50.1921 32.5572 50.6576C32.6498 51.1231 32.7538 51.5861 32.8691 52.0464C32.9844 52.5068 33.111 52.9641 33.2487 53.4183C33.3865 53.8724 33.5353 54.3229 33.6952 54.7698C33.8551 55.2167 34.0259 55.6594 34.2075 56.0978C34.3891 56.5363 34.5814 56.97 34.7843 57.3991C34.9872 57.8281 35.2006 58.2519 35.4243 58.6705C35.648 59.0891 35.8819 59.5019 36.1259 59.9089C36.3699 60.316 36.6237 60.7169 36.8874 61.1115C37.1511 61.5062 37.4243 61.894 37.707 62.2753C37.9897 62.6565 38.2816 63.0305 38.5827 63.3974C38.8838 63.7642 39.1937 64.1235 39.5124 64.4752C39.8311 64.8269 40.1583 65.1705 40.4939 65.5061C40.8295 65.8417 41.1731 66.1689 41.5248 66.4876C41.8765 66.8063 42.2358 67.1162 42.6026 67.4173C42.9695 67.7184 43.3435 68.0103 43.7247 68.293C44.1059 68.5757 44.4938 68.8489 44.8885 69.1126C45.2831 69.3763 45.6839 69.6301 46.091 69.8741C46.4981 70.1181 46.9109 70.352 47.3295 70.5757C47.7481 70.7995 48.1719 71.0128 48.6009 71.2157C49.03 71.4186 49.4637 71.6108 49.9022 71.7925C50.3406 71.9741 50.7833 72.1449 51.2302 72.3047C51.6771 72.4646 52.1276 72.6134 52.5817 72.7511C53.0359 72.8887 53.4932 73.0156 53.9536 73.1311C54.4139 73.2461 54.8769 73.3503 55.3424 73.4427C55.8079 73.535 56.2753 73.6165 56.7448 73.6862C57.2143 73.7559 57.6852 73.8137 58.1575 73.8601C58.6298 73.9071 59.103 73.9417 59.577 73.9649C60.051 73.9881 60.5254 74 61 74C61.4746 74 61.949 73.9881 62.423 73.9649C62.897 73.9417 63.3702 73.9071 63.8425 73.8601C64.3148 73.8137 64.7857 73.7559 65.2552 73.6862C65.7247 73.6165 66.1921 73.535 66.6576 73.4427C67.1231 73.3503 67.5861 73.2461 68.0464 73.1311C68.5068 73.0156 68.9641 72.8887 69.4183 72.7511C69.8724 72.6134 70.3229 72.4646 70.7698 72.3047C71.2167 72.1449 71.6594 71.9741 72.0978 71.7925C72.5363 71.6108 72.97 71.4186 73.3991 71.2157C73.8281 71.0128 74.2519 70.7995 74.6705 70.5757C75.0891 70.352 75.5019 70.1181 75.909 69.8741C76.316 69.6301 76.7169 69.3763 77.1115 69.1126C77.5061 68.8489 77.894 68.5757 78.2753 68.293C78.6565 68.0103 79.0305 67.7184 79.3974 67.4173C79.7643 67.1162 80.1235 66.8063 80.4752 66.4876C80.8269 66.1689 81.1705 65.8417 81.5061 65.5061C81.8417 65.1705 82.1689 64.8269 82.4876 64.4752C82.8063 64.1235 83.1162 63.7642 83.4173 63.3974C83.7184 63.0305 84.0103 62.6565 84.293 62.2753C84.5757 61.894 84.8489 61.5062 85.1126 61.1115C85.3763 60.7169 85.6301 60.316 85.8741 59.9089C86.1181 59.5019 86.352 59.0891 86.5757 58.6705C86.7995 58.2519 87.0128 57.8281 87.2157 57.3991C87.4186 56.97 87.6108 56.5363 87.7925 56.0978C87.9741 55.6594 88.1449 55.2167 88.3047 54.7698C88.4646 54.3229 88.6134 53.8724 88.7511 53.4183C88.8887 52.9641 89.0156 52.5068 89.1311 52.0464C89.2461 51.5861 89.3503 51.1231 89.4427 50.6576C89.535 50.1921 89.6165 49.7247 89.6862 49.2552C89.7559 48.7857 89.8137 48.3148 89.8601 47.8425C89.9071 47.3702 89.9417 46.897 89.9649 46.423C89.9881 45.949 90 45.4746 90 45C90 44.5254 89.9881 44.051 89.9649 43.577C89.9417 43.103 89.9071 42.6298 89.8601 42.1575C89.8137 41.6852 89.7559 41.2143 89.6862 40.7448C89.6165 40.2753 89.535 39.8079 89.4427 39.3424C89.3503 38.8769 89.2461 38.4139 89.1311 37.9536C89.0156 37.4932 88.8887 37.0359 88.7511 36.5817C88.6134 36.1276 88.4646 35.6771 88.3047 35.2302C88.1449 34.7833 87.9741 34.3406 87.7925 33.9022C87.6108 33.4637 87.4186 33.03 87.2157 32.6009C87.0128 32.1719 86.7995 31.7481 86.5757 31.3295C86.352 30.9109 86.1181 30.4981 85.8741 30.091C85.6301 29.6839 85.3763 29.2831 85.1126 28.8885C84.8489 28.4938 84.5757 28.1059 84.293 27.7247C84.0103 27.3435 83.7184 26.9695 83.4173 26.6026C83.1162 26.2358 82.8063 25.8765 82.4876 25.5248C82.1689 25.1731 81.8417 24.8295 81.5061 24.4939C81.1705 24.1583 80.8269 23.8311 80.4752 23.5124C80.1235 23.1937 79.7643 22.8838 79.3974 22.5827C79.0305 22.2816 78.6565 21.9897 78.2753 21.707C77.894 21.4243 77.5061 21.1511 77.1115 20.8874C76.7169 20.6237 76.316 20.3699 75.909 20.1259C75.5019 19.8819 75.0891 19.648 74.6705 19.4243C74.2519 19.2006 73.8281 18.9872 73.3991 18.7843C72.97 18.5814 72.5363 18.3891 72.0978 18.2075C71.6594 18.0259 71.2167 17.8551 70.7698 17.6952C70.3229 17.5353 69.8724 17.3865 69.4183 17.2487C68.9641 17.111 68.5068 16.9844 68.0464 16.8691C67.5861 16.7538 67.1231 16.6498 66.6576 16.5572C66.1921 16.4646 65.7247 16.3835 65.2552 16.3139C64.7857 16.2442 64.3148 16.1862 63.8425 16.1396C63.3702 16.0931 62.897 16.0582 62.423 16.0349C61.949 16.0116 61.4746 16 61 16ZM37.8 45C37.8001 44.8407 37.8018 44.6813 37.8051 44.522C37.8084 44.3627 37.8134 44.2034 37.8201 44.0442C37.8267 43.885 37.8351 43.7258 37.845 43.5668C37.855 43.4078 37.8666 43.2488 37.8799 43.09C37.8931 42.9313 37.908 42.7726 37.9246 42.6141C37.9411 42.4556 37.9593 42.2973 37.9792 42.1392C37.999 41.9811 38.0204 41.8231 38.0436 41.6655C38.0667 41.5078 38.0915 41.3504 38.1179 41.1932C38.1442 41.0361 38.1722 40.8793 38.2019 40.7227C38.2315 40.5661 38.2628 40.4098 38.2957 40.2539C38.3286 40.098 38.3631 39.9424 38.3992 39.7873C38.4353 39.632 38.473 39.4772 38.5124 39.3228C38.5517 39.1683 38.5926 39.0143 38.6352 38.8608C38.6777 38.7072 38.7218 38.5541 38.7675 38.4014C38.8132 38.2488 38.8605 38.0966 38.9094 37.9449C38.9582 37.7933 39.0087 37.6421 39.0607 37.4915C39.1127 37.3408 39.1663 37.1907 39.2214 37.0413C39.2765 36.8917 39.3331 36.7428 39.3914 36.5945C39.4496 36.4461 39.5094 36.2984 39.5706 36.1513C39.6319 36.0042 39.6947 35.8577 39.759 35.712C39.8233 35.5662 39.8891 35.4211 39.9565 35.2766C40.0238 35.1322 40.0926 34.9885 40.163 34.8455C40.2333 34.7025 40.3051 34.5602 40.3783 34.4187C40.4516 34.2771 40.5263 34.1364 40.6025 33.9965C40.6787 33.8565 40.7564 33.7174 40.8354 33.579C40.9146 33.4407 40.995 33.3031 41.077 33.1665C41.159 33.0298 41.2423 32.894 41.327 32.7591C41.4118 32.6241 41.498 32.4901 41.5855 32.3569C41.673 32.2237 41.7619 32.0915 41.8522 31.9602C41.9425 31.8289 42.0341 31.6985 42.1271 31.5691C42.2201 31.4397 42.3144 31.3113 42.4101 31.1838C42.5058 31.0564 42.6027 30.93 42.701 30.8045L75.1955 63.299C74.9826 63.4637 74.767 63.6246 74.5485 63.7817C74.33 63.9389 74.1089 64.0923 73.8851 64.2417C73.6613 64.3912 73.435 64.5367 73.2061 64.6783C72.9772 64.8199 72.746 64.9575 72.5123 65.091C72.2787 65.2246 72.0428 65.354 71.8046 65.4794C71.5664 65.6047 71.3262 65.7259 71.0838 65.8428C70.8414 65.9598 70.5971 66.0725 70.3508 66.181C70.1045 66.2895 69.8564 66.3936 69.6065 66.4935C69.3565 66.5933 69.1049 66.6888 68.8517 66.7798C68.5984 66.8709 68.3437 66.9576 68.0874 67.0398C67.8312 67.122 67.5736 67.1998 67.3146 67.273C67.0556 67.3463 66.7955 67.415 66.5341 67.4792C66.2728 67.5434 66.0104 67.603 65.7469 67.6581C65.4835 67.7131 65.2192 67.7636 64.954 67.8095C64.6888 67.8553 64.4229 67.8966 64.1563 67.9332C63.8897 67.9698 63.6225 68.0018 63.3548 68.0291C63.087 68.0564 62.8189 68.0791 62.5504 68.097C62.2818 68.115 62.0131 68.1283 61.7441 68.137C61.4751 68.1456 61.2061 68.1495 60.9369 68.1488C60.6678 68.1481 60.3988 68.1427 60.1298 68.1326C59.8609 68.1225 59.5922 68.1077 59.3238 68.0883C59.0554 68.0689 58.7874 68.0447 58.5198 68.016C58.2522 67.9872 57.9852 67.9538 57.7188 67.9157C57.4524 67.8777 57.1867 67.8349 56.9218 67.7877C56.6568 67.7404 56.3927 67.6884 56.1296 67.632C55.8665 67.5755 55.6045 67.5144 55.3435 67.4488C55.0824 67.3831 54.8227 67.313 54.5641 67.2384C54.3055 67.1637 54.0483 67.0846 53.7925 67.001C53.5367 66.9174 53.2824 66.8294 53.0297 66.7369C52.777 66.6444 52.5259 66.5476 52.2765 66.4464C52.0271 66.3452 51.7796 66.2397 51.5339 66.1299C51.2882 66.0201 51.0444 65.9061 50.8027 65.7877C50.561 65.6694 50.3214 65.547 50.0839 65.4204C49.8464 65.2937 49.6113 65.163 49.3783 65.0282C49.1454 64.8934 48.9149 64.7545 48.6868 64.6117C48.4587 64.4689 48.2331 64.3222 48.0102 64.1714C47.7872 64.0207 47.5669 63.8662 47.3493 63.7079C47.1317 63.5495 46.9169 63.3874 46.7049 63.2216C46.4929 63.0558 46.2839 62.8863 46.0779 62.7132C45.8718 62.5401 45.6688 62.3635 45.4689 62.1833C45.269 62.0032 45.0722 61.8195 44.8787 61.6326C44.6851 61.4455 44.4949 61.2552 44.308 61.0616C44.1211 60.8679 43.9376 60.6711 43.7575 60.4711C43.5775 60.2711 43.401 60.0681 43.228 59.8619C43.0549 59.6557 42.8856 59.4466 42.7199 59.2345C42.5542 59.0225 42.3922 58.8076 42.2339 58.5899C42.0757 58.3722 41.9213 58.1518 41.7707 57.9288C41.6202 57.7057 41.4735 57.4801 41.3308 57.2519C41.1881 57.0238 41.0494 56.7932 40.9147 56.5602C40.78 56.3272 40.6494 56.0919 40.5229 55.8544C40.3964 55.6169 40.2741 55.3772 40.1559 55.1354C40.0377 54.8936 39.9238 54.6498 39.8141 54.404C39.7044 54.1583 39.5991 53.9107 39.498 53.6613C39.3969 53.4119 39.3002 53.1607 39.2079 52.9079C39.1155 52.6552 39.0276 52.4008 38.9442 52.145C38.8607 51.8891 38.7817 51.6319 38.7072 51.3733C38.6327 51.1147 38.5627 50.8549 38.4972 50.5938C38.4317 50.3328 38.3708 50.0707 38.3144 49.8075C38.2581 49.5444 38.2063 49.2803 38.1591 49.0154C38.1119 48.7504 38.0694 48.4847 38.0314 48.2183C37.9935 47.9518 37.9602 47.6848 37.9316 47.4172C37.903 47.1496 37.879 46.8816 37.8597 46.6132C37.8404 46.3448 37.8258 46.0761 37.8158 45.8071C37.8059 45.5381 37.8006 45.2691 37.8 45ZM79.299 59.1955L46.8045 26.701C47.0807 26.4924 47.3616 26.2902 47.6469 26.0942C47.9322 25.8982 48.2217 25.7087 48.5155 25.5257C48.8093 25.3426 49.107 25.1663 49.4087 24.9966C49.7104 24.8268 50.0157 24.664 50.3247 24.5079C50.6336 24.3519 50.9459 24.2029 51.2616 24.0608C51.5773 23.9188 51.8959 23.7838 52.2176 23.656C52.5392 23.5282 52.8636 23.4077 53.1907 23.2944C53.5178 23.1811 53.8473 23.0752 54.1791 22.9767C54.5109 22.8782 54.8447 22.7871 55.1807 22.7035C55.5166 22.6199 55.8541 22.5439 56.1935 22.4754C56.5328 22.407 56.8734 22.3461 57.2154 22.2929C57.5574 22.2396 57.9005 22.1941 58.2445 22.1562C58.5886 22.1183 58.9334 22.0882 59.2787 22.0658C59.6242 22.0433 59.9699 22.0286 60.3159 22.0216C60.662 22.0147 61.0081 22.0154 61.3541 22.024C61.7001 22.0325 62.0458 22.0487 62.3912 22.0727C62.7365 22.0967 63.0811 22.1284 63.425 22.1678C63.7688 22.2072 64.1117 22.2543 64.4534 22.3091C64.7952 22.3639 65.1356 22.4262 65.4746 22.4962C65.8136 22.5662 66.1508 22.6438 66.4863 22.7288C66.8219 22.8139 67.1553 22.9065 67.4867 23.0065C67.8181 23.1065 68.147 23.2139 68.4736 23.3286C68.8002 23.4434 69.124 23.5654 69.4451 23.6946C69.7662 23.8238 70.0843 23.9602 70.3993 24.1037C70.7143 24.2472 71.0259 24.3976 71.3342 24.555C71.6425 24.7124 71.9471 24.8767 72.248 25.0477C72.5489 25.2188 72.8458 25.3965 73.1388 25.5808C73.4318 25.7652 73.7205 25.9559 74.0049 26.1532C74.2893 26.3505 74.5692 26.554 74.8445 26.7638C75.1198 26.9736 75.3903 27.1895 75.656 27.4114C75.9216 27.6332 76.1822 27.861 76.4376 28.0945C76.6931 28.3281 76.9432 28.5673 77.1879 28.8121C77.4327 29.0568 77.6719 29.3069 77.9055 29.5624C78.139 29.8178 78.3668 30.0784 78.5887 30.344C78.8105 30.6097 79.0264 30.8802 79.2362 31.1555C79.446 31.4308 79.6495 31.7107 79.8468 31.9951C80.0441 32.2795 80.2348 32.5682 80.4192 32.8612C80.6035 33.1542 80.7812 33.4511 80.9523 33.752C81.1233 34.053 81.2876 34.3575 81.445 34.6658C81.6024 34.9741 81.7528 35.2857 81.8963 35.6007C82.0398 35.9157 82.1762 36.2338 82.3054 36.5549C82.4346 36.876 82.5566 37.1999 82.6714 37.5264C82.7861 37.853 82.8935 38.1819 82.9935 38.5133C83.0935 38.8447 83.1861 39.1781 83.2711 39.5137C83.3562 39.8492 83.4338 40.1864 83.5038 40.5254C83.5738 40.8644 83.6361 41.2048 83.6909 41.5466C83.7457 41.8883 83.7928 42.2312 83.8322 42.575C83.8716 42.9189 83.9033 43.2635 83.9273 43.6088C83.9513 43.9542 83.9675 44.2999 83.976 44.6459C83.9846 44.9919 83.9853 45.338 83.9784 45.684C83.9714 46.0301 83.9567 46.3758 83.9342 46.7213C83.9118 47.0666 83.8817 47.4114 83.8438 47.7555C83.8059 48.0995 83.7604 48.4426 83.7071 48.7846C83.6539 49.1266 83.593 49.4672 83.5246 49.8065C83.4561 50.1459 83.3801 50.4834 83.2965 50.8193C83.2129 51.1553 83.1218 51.4891 83.0233 51.8209C82.9248 52.1527 82.8189 52.4822 82.7056 52.8093C82.5923 53.1364 82.4718 53.4608 82.344 53.7824C82.2162 54.1041 82.0812 54.4227 81.9392 54.7384C81.7971 55.0541 81.6481 55.3664 81.4921 55.6753C81.336 55.9843 81.1732 56.2896 81.0034 56.5913C80.8337 56.893 80.6574 57.1907 80.4743 57.4845C80.2913 57.7783 80.1018 58.0678 79.9059 58.3531C79.7098 58.6384 79.5076 58.9193 79.299 59.1955Z" stroke="rgba(212, 48, 48, 1)" stroke-width="3.6250000000000013"      fill="#D43030" ></path><rect x="14" y="88" width="34" height="18"   fill="#D43030" ></rect><path     fill="#F7F7F7"  d="M23.78 91.228C22.646 91.228 21.926 91.966 21.422 92.47L20.702 93.19C20.252 93.64 20.234 94.252 20.648 94.666C21.098 95.08 21.674 95.026 22.106 94.612C22.376 94.306 22.682 94 22.952 93.712C23.096 93.568 23.258 93.658 23.258 93.802L23.258 101.938C23.258 102.568 23.672 103.072 24.338 103.072C25.004 103.072 25.418 102.568 25.418 101.938L25.418 93.244C25.418 91.732 24.554 91.228 23.78 91.228Z"></path><path     fill="#F7F7F7"  d="M29.774 96.43C29.774 95.854 30.332 95.656 30.944 95.656C31.844 95.656 32.438 96.088 32.78 96.34C33.158 96.628 33.554 96.79 34.094 96.232C34.634 95.638 34.4 95.206 34.094 94.9C33.374 94.126 32.204 93.856 31.178 93.856C29.378 93.856 27.758 94.684 27.758 96.682C27.758 98.464 29.09 98.86 30.584 99.274C32.096 99.688 32.672 99.886 32.672 100.462C32.672 101.038 32.132 101.326 31.268 101.326C30.116 101.326 29.522 100.858 29.036 100.408C28.73 100.138 28.262 99.922 27.722 100.444C27.29 100.858 27.236 101.326 27.686 101.866C28.262 102.55 29.504 103.144 31.214 103.144C33.284 103.144 34.724 102.262 34.724 100.318C34.724 98.32 33.176 97.906 31.556 97.51C30.386 97.24 29.774 97.024 29.774 96.43Z"></path><path     fill="#F7F7F7"  d="M41.276 101.02L40.97 101.02C39.962 101.02 39.638 100.39 39.638 99.094L39.638 95.944L41.204 95.944C41.852 95.944 42.302 95.584 42.302 94.972C42.302 94.36 41.852 94 41.204 94L39.638 94L39.638 92.326C39.638 91.678 39.224 91.21 38.594 91.21C37.946 91.21 37.532 91.678 37.532 92.326L37.532 94L36.992 94C36.362 94 35.912 94.36 35.912 94.972C35.912 95.584 36.362 95.944 36.992 95.944L37.532 95.944L37.532 99.4C37.532 101.902 38.702 103 40.916 103L41.276 103C41.888 103 42.302 102.658 42.302 102.01C42.302 101.362 41.888 101.02 41.276 101.02Z"></path><rect x="48" y="88" width="58" height="18"   fill="#FFC300" ></rect><path     fill="#383838"  d="M68.388 96.7001C68.802 96.1781 69.126 95.44 69.126 94.6121C69.126 92.632 67.848 91.246 65.616 91.246L62.268 91.246C61.602 91.246 61.188 91.732 61.188 92.3801L61.188 101.866C61.188 102.514 61.602 103 62.25 103L66.336 103C68.568 103 69.81 101.47 69.81 99.508C69.81 98.2661 69.162 97.276 68.388 96.7001ZM65.382 93.2621C66.48 93.2621 67.002 93.784 67.002 94.648C67.002 95.5121 66.606 96.0881 65.76 96.0881L63.348 96.0881L63.348 93.2621L65.382 93.2621ZM66.048 100.984L63.348 100.984L63.348 97.9781L66.372 97.9781C67.236 97.9781 67.668 98.536 67.668 99.454C67.668 100.39 67.146 100.984 66.048 100.984Z"></path><path     fill="#383838"  d="M81.168 101.47L77.262 91.858C77.082 91.354 76.668 91.1021 76.218 91.1021C75.768 91.1021 75.372 91.354 75.174 91.858L71.268 101.47C71.034 102.064 71.25 102.676 71.862 102.928C72.474 103.18 73.05 102.874 73.284 102.262L73.86 100.714L78.576 100.714L79.152 102.262C79.386 102.874 79.98 103.18 80.574 102.928C81.186 102.676 81.402 102.064 81.168 101.47ZM74.562 98.8061L76.218 94.342L77.874 98.8061L74.562 98.8061Z"></path><path     fill="#383838"  d="M91.536 91.246C90.888 91.246 90.456 91.732 90.456 92.3801L90.456 98.9501L84.966 91.7681C84.696 91.4441 84.444 91.246 84.03 91.246C83.364 91.246 82.95 91.732 82.95 92.3801L82.95 101.866C82.95 102.514 83.364 103 84.03 103C84.678 103 85.11 102.514 85.11 101.866L85.11 95.368L90.69 102.64C90.888 102.874 91.176 103 91.536 103C92.202 103 92.616 102.514 92.616 101.866L92.616 92.3801C92.616 91.732 92.202 91.246 91.536 91.246Z"></path></svg>