<svg xmlns="http://www.w3.org/2000/svg" xmlns:xlink="http://www.w3.org/1999/xlink" width="120" height="120" viewBox="0 0 120 120" fill="none"><rect x="14" y="88" width="34" height="18"   fill="#D43030" ></rect><path     fill="#F7F7F7"  d="M23.78 91.228C22.646 91.228 21.926 91.966 21.422 92.47L20.702 93.19C20.252 93.64 20.234 94.252 20.648 94.666C21.098 95.08 21.674 95.026 22.106 94.612C22.376 94.306 22.682 94 22.952 93.712C23.096 93.568 23.258 93.658 23.258 93.802L23.258 101.938C23.258 102.568 23.672 103.072 24.338 103.072C25.004 103.072 25.418 102.568 25.418 101.938L25.418 93.244C25.418 91.732 24.554 91.228 23.78 91.228Z"></path><path     fill="#F7F7F7"  d="M29.774 96.43C29.774 95.854 30.332 95.656 30.944 95.656C31.844 95.656 32.438 96.088 32.78 96.34C33.158 96.628 33.554 96.79 34.094 96.232C34.634 95.638 34.4 95.206 34.094 94.9C33.374 94.126 32.204 93.856 31.178 93.856C29.378 93.856 27.758 94.684 27.758 96.682C27.758 98.464 29.09 98.86 30.584 99.274C32.096 99.688 32.672 99.886 32.672 100.462C32.672 101.038 32.132 101.326 31.268 101.326C30.116 101.326 29.522 100.858 29.036 100.408C28.73 100.138 28.262 99.922 27.722 100.444C27.29 100.858 27.236 101.326 27.686 101.866C28.262 102.55 29.504 103.144 31.214 103.144C33.284 103.144 34.724 102.262 34.724 100.318C34.724 98.32 33.176 97.906 31.556 97.51C30.386 97.24 29.774 97.024 29.774 96.43Z"></path><path     fill="#F7F7F7"  d="M41.276 101.02L40.97 101.02C39.962 101.02 39.638 100.39 39.638 99.094L39.638 95.944L41.204 95.944C41.852 95.944 42.302 95.584 42.302 94.972C42.302 94.36 41.852 94 41.204 94L39.638 94L39.638 92.326C39.638 91.678 39.224 91.21 38.594 91.21C37.946 91.21 37.532 91.678 37.532 92.326L37.532 94L36.992 94C36.362 94 35.912 94.36 35.912 94.972C35.912 95.584 36.362 95.944 36.992 95.944L37.532 95.944L37.532 99.4C37.532 101.902 38.702 103 40.916 103L41.276 103C41.888 103 42.302 102.658 42.302 102.01C42.302 101.362 41.888 101.02 41.276 101.02Z"></path><rect x="48" y="88" width="58" height="18"   fill="#FFC300" ></rect><path     fill="#383838"  d="M63.652 91.246L60.268 91.246C59.602 91.246 59.188 91.732 59.188 92.3801L59.188 101.866C59.188 102.514 59.602 103 60.268 103C60.916 103 61.348 102.514 61.348 101.866L61.348 99.5981L63.742 99.5981C66.298 99.5981 67.846 97.4021 67.846 95.4041C67.846 93.4601 66.658 91.246 63.652 91.246ZM63.328 97.564L61.348 97.564L61.348 93.2801L63.418 93.2801C65.254 93.2801 65.722 94.5041 65.722 95.4041C65.722 96.3041 65.308 97.564 63.328 97.564Z"></path><path     fill="#383838"  d="M70.798 91.246C70.132 91.246 69.718 91.732 69.718 92.3801L69.718 101.866C69.718 102.514 70.132 103 70.798 103C71.446 103 71.878 102.514 71.878 101.866L71.878 92.3801C71.878 91.732 71.446 91.246 70.798 91.246Z"></path><path     fill="#383838"  d="M82.3 94.1801C82.768 94.6121 83.2 94.702 83.74 94.1441C84.244 93.6401 84.316 93.19 83.848 92.65C83.2 91.858 81.652 91.1021 79.798 91.1021C76.396 91.1021 73.966 93.6581 73.966 97.1141C73.966 100.57 76.432 103.144 79.744 103.144C81.688 103.144 83.308 102.316 84.01 101.47C84.442 100.948 84.478 100.426 83.956 99.9221C83.344 99.328 82.822 99.6161 82.444 99.9581C81.922 100.426 81.22 101.092 79.834 101.092C77.602 101.092 76.162 99.382 76.162 97.1141C76.162 94.8461 77.584 93.1541 79.888 93.1541C81.202 93.1541 81.85 93.7661 82.3 94.1801Z"></path><path     fill="#383838"  d="M95.476 101.614L94.486 99.202C94.018 98.122 93.334 97.204 92.38 96.826C93.172 96.3941 93.532 95.8 93.874 94.9901L94.864 92.632C95.08 92.0021 94.738 91.4441 94.126 91.2821C93.496 91.12 93.028 91.4981 92.794 92.092L91.84 94.3781C91.372 95.4581 90.994 96.0881 89.716 96.0881L88.69 96.0881L88.69 92.3801C88.69 91.732 88.258 91.246 87.61 91.246C86.944 91.246 86.53 91.732 86.53 92.3801L86.53 101.866C86.53 102.514 86.944 103 87.61 103C88.258 103 88.69 102.514 88.69 101.866L88.69 98.104L90.004 98.104C91.48 98.104 91.948 98.7701 92.398 99.7961L93.388 102.154C93.64 102.784 94.198 103.09 94.72 102.982C95.296 102.856 95.71 102.244 95.476 101.614Z"></path><path d="M59.3237 68.4882C58.301 69.576 56.8587 70.1935 55.3451 70.1935C53.8335 70.1935 52.3911 69.576 51.3684 68.4882L32.6086 49.1167C30.4638 46.7765 30.4638 43.2363 32.6086 40.8961C33.592 39.8857 34.9407 39.2896 36.368 39.2392C37.9509 39.1638 39.485 39.7696 40.5696 40.8961L55.3451 56.1603L81.3784 29.2767C82.4143 28.2121 83.8529 27.6101 85.3571 27.6101C86.8593 27.6101 88.2979 28.2121 89.3338 29.2767C91.4788 31.6149 91.4788 35.1532 89.3338 37.4914L59.3237 68.4882Z" stroke="rgba(212, 48, 48, 1)" stroke-width="2"      fill="#D43030" ></path></svg>